<?xml version="1.0" encoding="UTF-8" standalone="no"?>
<svg
   version="1.0"
   width="16"
   height="16"
   viewBox="0 0 16 16"
   preserveAspectRatio="xMidYMid"
   id="svg2"
   sodipodi:docname="file_icon.svg"
   inkscape:version="1.3.1 (9b9bdc1480, 2023-11-25, custom)"
   xmlns:inkscape="http://www.inkscape.org/namespaces/inkscape"
   xmlns:sodipodi="http://sodipodi.sourceforge.net/DTD/sodipodi-0.dtd"
   xmlns="http://www.w3.org/2000/svg"
   xmlns:svg="http://www.w3.org/2000/svg">
  <defs
     id="defs2" />
  <sodipodi:namedview
     id="namedview2"
     pagecolor="#ffffff"
     bordercolor="#000000"
     borderopacity="0.25"
     inkscape:showpageshadow="2"
     inkscape:pageopacity="0.0"
     inkscape:pagecheckerboard="0"
     inkscape:deskcolor="#d1d1d1"
     inkscape:document-units="pt"
     inkscape:zoom="62.678387"
     inkscape:cx="17.486091"
     inkscape:cy="10.63365"
     inkscape:window-width="3840"
     inkscape:window-height="2091"
     inkscape:window-x="0"
     inkscape:window-y="0"
     inkscape:window-maximized="1"
     inkscape:current-layer="g2"
     showguides="true">
    <sodipodi:guide
       position="5.9058699,12.042306"
       orientation="0,-1"
       id="guide3"
       inkscape:locked="false" />
  </sodipodi:namedview>
  <g
     transform="matrix(0.01251955,0,0,-0.01251955,3.9874805,16.011131)"
     fill="#810f0c"
     stroke="none"
     id="g2">
    <path
       d="m 247,1258 c -74,-43 -95,-140 -45,-210 61,-87 202,-74 250,22 24,47 22,87 -5,134 -41,73 -127,96 -200,54 z"
       id="path1"
       style="fill:#000000;fill-opacity:1" />
    <path
       d="M 240,891 C 185,873 83,810 23,757 L 1,737 28,701 c 14,-20 27,-38 29,-40 1,-2 29,10 62,28 72,38 98,40 107,7 3,-13 6,-153 7,-309 2,-271 3,-287 23,-313 34,-46 70,-67 123,-72 78,-7 131,18 223,106 91,87 100,115 47,152 l -30,22 -22,-20 c -68,-62 -149,-82 -164,-39 -4,12 -7,143 -5,290 3,253 2,270 -17,310 -11,23 -30,48 -41,55 -26,16 -98,24 -130,13 z m 112,-45 c 43,-32 47,-69 41,-332 -6,-275 0,-327 42,-346 34,-15 87,-2 143,37 50,34 62,35 62,5 C 640,190 527,79 483,57 447,38 363,35 327,51 c -13,6 -32,25 -43,42 -18,30 -19,54 -19,322 0,261 -2,293 -18,318 -22,33 -32,34 -113,1 -59,-23 -84,-25 -84,-5 0,10 80,67 144,102 56,31 128,38 158,15 z"
       id="path2"
       style="fill:#000000" />
    <path
       d="m 257.63142,1240.8523 c -63.85978,-37.1077 -81.98215,-120.8157 -38.83366,-181.2238 52.64116,-75.07822 174.31993,-63.85966 215.74248,18.9854 20.71128,40.5596 18.98535,75.0785 -4.31485,115.6381 -35.38177,62.9967 -109.59718,82.845 -172.59397,46.6003 z"
       id="path4"
       style="fill:#ffffff;fill-opacity:1;stroke-width:0.86297" />
    <path
       style="fill:#ffffff;fill-opacity:1;stroke-width:0.0112815"
       d="M 6.5545567,20.639087 C 6.2732603,20.615987 5.9874285,20.558945 5.8281216,20.494114 5.6350844,20.415557 5.3692495,20.180395 5.1608624,19.903844 4.8762253,19.526102 4.8153734,19.219764 4.7770046,17.971444 4.7705203,17.760479 4.7606608,16.199401 4.7550946,14.50238 4.7495284,12.805359 4.7398531,11.241742 4.733594,11.027675 4.6964958,9.7588994 4.6415513,9.3939243 4.442812,9.096124 4.3012345,8.8839775 4.1888881,8.7726135 4.066984,8.7235819 3.9787498,8.6880927 3.744837,8.6881279 3.6022508,8.7236517 3.3975469,8.7746514 3.1523302,8.8606866 2.6849991,9.0454731 2.2030783,9.2360286 1.9210547,9.3287131 1.6640226,9.3810081 1.5041255,9.4135402 1.3416754,9.4091541 1.2733201,9.3704592 1.2230387,9.3419956 1.1859563,9.2862339 1.1745403,9.2219219 1.1643103,9.1642912 1.211408,9.0989232 1.3533277,8.9737787 1.7682858,8.607869 2.6263326,8.0255799 3.4013749,7.5839292 3.7251245,7.3994436 3.9109924,7.3128241 4.1854398,7.2185336 4.5895124,7.0797085 4.9312499,7.0190156 5.3135907,7.0181731 c 0.418983,-9.232e-4 0.6721003,0.065764 0.9029245,0.2378881 0.4522355,0.3372291 0.5991537,0.7404391 0.6734006,1.8481165 0.021626,0.3226309 0.017906,2.4515143 -0.00605,3.4634233 -0.071784,3.03193 -0.044677,4.32708 0.105987,5.064077 0.074818,0.365985 0.1735763,0.577141 0.3477642,0.743559 0.2052055,0.196052 0.5432802,0.291597 0.9118144,0.257691 0.2975084,-0.02737 0.6001214,-0.110799 0.9224377,-0.25431 0.2441821,-0.108721 0.4532805,-0.228671 0.8179094,-0.469198 0.1768375,-0.11665 0.3772925,-0.243089 0.4454545,-0.280974 0.368999,-0.205094 0.503519,-0.195824 0.546326,0.03765 0.02359,0.128677 0.01698,0.186277 -0.03266,0.2843 -0.167978,0.331709 -0.9758139,1.178097 -1.7602148,1.844216 -0.3028048,0.257144 -0.6163977,0.483065 -0.8097475,0.583362 -0.2201206,0.114186 -0.5619196,0.200621 -0.9708947,0.245522 -0.1870223,0.02053 -0.6829773,0.02959 -0.8534789,0.01559 z"
       id="path5"
       transform="matrix(59.999998,0,0,-59.999998,-19.999989,1280)" />
  </g>
</svg>
